<?xml version="1.0" standalone="no"?>
<!DOCTYPE svg PUBLIC "-//W3C//DTD SVG 20010904//EN"
 "http://www.w3.org/TR/2001/REC-SVG-20010904/DTD/svg10.dtd">
<svg version="1.0" xmlns="http://www.w3.org/2000/svg"
 width="1794.000000pt" height="1794.000000pt" viewBox="0 0 1794.000000 1794.000000"
 preserveAspectRatio="xMidYMid meet">
<metadata>
Created by potrace 1.14, written by Peter Selinger 2001-2017
</metadata>
<g transform="translate(0.000000,1794.000000) scale(0.100000,-0.100000)"
fill="#000000" stroke="none">
<path d="M8460 16110 l0 -90 -180 0 -180 0 0 -180 0 -180 -90 0 -90 0 0 -480
0 -480 180 0 180 0 0 480 0 480 90 0 90 0 0 90 0 90 450 0 450 0 0 -180 0
-180 -90 0 -90 0 0 -90 0 -90 -90 0 -90 0 0 -90 0 -90 -90 0 -90 0 0 -90 0
-90 -90 0 -90 0 0 -90 0 -90 -90 0 -90 0 0 -30 0 -30 180 0 180 0 0 -240 0
-240 90 0 90 0 0 -180 0 -180 180 0 180 0 0 -90 0 -90 450 0 450 0 0 90 0 90
180 0 180 0 0 180 0 180 90 0 90 0 0 240 0 240 -180 0 -180 0 0 -240 0 -240
-90 0 -90 0 0 -90 0 -90 -450 0 -450 0 0 180 0 180 90 0 90 0 0 90 0 90 90 0
90 0 0 60 0 60 90 0 90 0 0 480 0 480 -90 0 -90 0 0 180 0 180 -180 0 -180 0
0 90 0 90 -450 0 -450 0 0 -90z m1080 -1110 l0 -300 -90 0 -90 0 0 -60 0 -60
-90 0 -90 0 0 60 0 60 -180 0 -180 0 0 30 0 30 90 0 90 0 0 90 0 90 90 0 90 0
0 90 0 90 90 0 90 0 0 90 0 90 90 0 90 0 0 -300z"/>
<path d="M6300 13230 l0 -90 -180 0 -180 0 0 -180 0 -180 -90 0 -90 0 0 -480
0 -480 -90 0 -90 0 0 -60 0 -60 -90 0 -90 0 0 60 0 60 -180 0 -180 0 0 -240 0
-240 90 0 90 0 0 -180 0 -180 180 0 180 0 0 -90 0 -90 450 0 450 0 0 90 0 90
180 0 180 0 0 180 0 180 90 0 90 0 0 240 0 240 -180 0 -180 0 0 30 0 30 90 0
90 0 0 90 0 90 90 0 90 0 0 90 0 90 90 0 90 0 0 90 0 90 90 0 90 0 0 -300 0
-300 180 0 180 0 0 480 0 480 -90 0 -90 0 0 180 0 180 -180 0 -180 0 0 90 0
90 -450 0 -450 0 0 -90z m900 -450 l0 -180 -90 0 -90 0 0 -90 0 -90 -90 0 -90
0 0 -90 0 -90 -90 0 -90 0 0 -90 0 -90 -90 0 -90 0 0 -90 0 -90 -90 0 -90 0 0
-30 0 -30 180 0 180 0 0 -240 0 -240 -90 0 -90 0 0 -90 0 -90 -450 0 -450 0 0
180 0 180 90 0 90 0 0 90 0 90 90 0 90 0 0 60 0 60 90 0 90 0 0 480 0 480 90
0 90 0 0 90 0 90 450 0 450 0 0 -180z"/>
<path d="M8820 13230 l0 -90 -90 0 -90 0 0 -90 0 -90 -180 0 -180 0 0 -180 0
-180 270 0 270 0 0 -390 0 -390 180 0 180 0 0 750 0 750 -180 0 -180 0 0 -90z"/>
<path d="M10620 13230 l0 -90 -180 0 -180 0 0 -180 0 -180 -90 0 -90 0 0 -480
0 -480 -90 0 -90 0 0 -60 0 -60 -90 0 -90 0 0 60 0 60 -180 0 -180 0 0 -240 0
-240 90 0 90 0 0 -180 0 -180 180 0 180 0 0 -90 0 -90 450 0 450 0 0 90 0 90
180 0 180 0 0 180 0 180 90 0 90 0 0 240 0 240 -180 0 -180 0 0 30 0 30 90 0
90 0 0 90 0 90 90 0 90 0 0 90 0 90 90 0 90 0 0 90 0 90 90 0 90 0 0 -300 0
-300 180 0 180 0 0 480 0 480 -90 0 -90 0 0 180 0 180 -180 0 -180 0 0 90 0
90 -450 0 -450 0 0 -90z m900 -450 l0 -180 -90 0 -90 0 0 -90 0 -90 -90 0 -90
0 0 -90 0 -90 -90 0 -90 0 0 -90 0 -90 -90 0 -90 0 0 -90 0 -90 -90 0 -90 0 0
-30 0 -30 180 0 180 0 0 -240 0 -240 -90 0 -90 0 0 -90 0 -90 -450 0 -450 0 0
180 0 180 90 0 90 0 0 90 0 90 90 0 90 0 0 60 0 60 90 0 90 0 0 480 0 480 90
0 90 0 0 90 0 90 450 0 450 0 0 -180z"/>
<path d="M8100 11490 l0 -330 -270 0 -270 0 0 -180 0 -180 720 0 720 0 0 180
0 180 -270 0 -270 0 0 330 0 330 -180 0 -180 0 0 -330z"/>
<path d="M2340 10350 l0 -90 -90 0 -90 0 0 -90 0 -90 -180 0 -180 0 0 -180 0
-180 270 0 270 0 0 -390 0 -390 180 0 180 0 0 750 0 750 -180 0 -180 0 0 -90z"/>
<path d="M8460 10350 l0 -90 -180 0 -180 0 0 -90 0 -90 180 0 180 0 0 -90 0
-90 -90 0 -90 0 0 -480 0 -480 180 0 180 0 0 480 0 480 90 0 90 0 0 90 0 90
450 0 450 0 0 -180 0 -180 -90 0 -90 0 0 -90 0 -90 -90 0 -90 0 0 -90 0 -90
-90 0 -90 0 0 -90 0 -90 -90 0 -90 0 0 -90 0 -90 -90 0 -90 0 0 -30 c0 -27 3
-30 30 -30 l30 0 0 -240 0 -240 90 0 90 0 0 -180 0 -180 180 0 180 0 0 -90 0
-90 450 0 450 0 0 90 0 90 180 0 180 0 0 180 0 180 90 0 90 0 0 240 0 240
-180 0 -180 0 0 -240 0 -240 -90 0 -90 0 0 -90 0 -90 -450 0 -450 0 0 180 0
180 90 0 90 0 0 90 0 90 90 0 90 0 0 60 0 60 -180 0 -180 0 0 -60 0 -60 -90 0
-90 0 0 60 0 60 -30 0 c-27 0 -30 3 -30 30 l0 30 90 0 90 0 0 90 0 90 90 0 90
0 0 90 0 90 90 0 90 0 0 90 0 90 90 0 90 0 0 -300 0 -300 180 0 180 0 0 480 0
480 -90 0 -90 0 0 90 0 90 -180 0 -180 0 0 90 0 90 -180 0 -180 0 0 90 0 90
-450 0 -450 0 0 -90z"/>
<path d="M14940 10350 l0 -90 -180 0 -180 0 0 -180 0 -180 -90 0 -90 0 0 -720
0 -720 90 0 90 0 0 -180 0 -180 180 0 180 0 0 -90 0 -90 450 0 450 0 0 90 0
90 180 0 180 0 0 180 0 180 90 0 90 0 0 720 0 720 -90 0 -90 0 0 180 0 180
-180 0 -180 0 0 90 0 90 -450 0 -450 0 0 -90z m900 -450 l0 -180 -90 0 -90 0
0 -90 0 -90 -90 0 -90 0 0 -90 0 -90 -90 0 -90 0 0 -90 0 -90 -90 0 -90 0 0
-90 0 -90 -90 0 -90 0 0 -90 0 -90 -90 0 -90 0 0 540 0 540 90 0 90 0 0 90 0
90 450 0 450 0 0 -180z m180 -900 l0 -540 -90 0 -90 0 0 -90 0 -90 -450 0
-450 0 0 180 0 180 90 0 90 0 0 90 0 90 90 0 90 0 0 90 0 90 90 0 90 0 0 90 0
90 90 0 90 0 0 90 0 90 90 0 90 0 0 90 0 90 90 0 90 0 0 -540z"/>
<path d="M3300 8610 l0 -330 -270 0 -270 0 0 -180 0 -180 720 0 720 0 0 180 0
180 -270 0 -270 0 0 330 0 330 -180 0 -180 0 0 -330z"/>
<path d="M4500 7470 l0 -90 -90 0 -90 0 0 -90 0 -90 -180 0 -180 0 0 -180 0
-180 270 0 270 0 0 -300 0 -300 150 0 150 0 0 30 c0 27 3 30 30 30 l30 0 0
630 0 630 -180 0 -180 0 0 -90z"/>
<path d="M6660 7470 l0 -90 -90 0 -90 0 0 -90 0 -90 -180 0 -180 0 0 -180 0
-180 270 0 270 0 0 -270 0 -270 180 0 180 0 0 630 0 630 -180 0 -180 0 0 -90z"/>
<path d="M8460 7470 l0 -90 -180 0 -180 0 0 -180 0 -180 -90 0 -90 0 0 -360 0
-360 150 0 150 0 0 -30 0 -30 150 0 150 0 0 -330 0 -330 90 0 90 0 0 -180 0
-180 180 0 180 0 0 -30 0 -30 210 0 210 0 0 -30 0 -30 480 0 480 0 0 -30 0
-30 720 0 720 0 0 30 0 30 420 0 420 0 0 30 0 30 -120 0 -120 0 0 120 0 120
-270 0 -270 0 0 420 0 420 -180 0 -180 0 0 -420 0 -420 -270 0 -270 0 0 -120
0 -120 390 0 390 0 0 -30 0 -30 -450 0 -450 0 0 30 0 30 -480 0 -480 0 0 30 0
30 180 0 180 0 0 180 0 180 90 0 90 0 0 330 0 330 30 0 c27 0 30 3 30 30 l0
30 -180 0 -180 0 0 -30 c0 -27 -3 -30 -30 -30 l-30 0 0 -330 0 -330 -90 0 -90
0 0 -90 0 -90 -450 0 -450 0 0 180 0 180 90 0 90 0 0 90 0 90 90 0 90 0 0 90
0 90 90 0 90 0 0 60 0 60 120 0 120 0 0 30 c0 27 3 30 30 30 l30 0 0 360 0
360 -90 0 -90 0 0 180 0 180 -180 0 -180 0 0 90 0 90 -450 0 -450 0 0 -90z
m900 -450 l0 -180 -90 0 -90 0 0 -90 0 -90 -90 0 -90 0 0 -90 0 -90 -90 0 -90
0 0 -90 0 -90 180 0 180 0 0 90 0 90 90 0 90 0 0 90 0 90 90 0 90 0 0 -180 0
-180 -30 0 c-27 0 -30 -3 -30 -30 l0 -30 -120 0 -120 0 0 -60 0 -60 -90 0 -90
0 0 -90 0 -90 -90 0 -90 0 0 150 0 150 -150 0 -150 0 0 30 0 30 -150 0 -150 0
0 360 0 360 90 0 90 0 0 90 0 90 450 0 450 0 0 -180z"/>
<path d="M10980 7470 l0 -90 -90 0 -90 0 0 -90 0 -90 -180 0 -180 0 0 -180 0
-180 270 0 270 0 0 -270 0 -270 60 0 60 0 0 -30 0 -30 180 0 180 0 0 30 0 30
-60 0 -60 0 0 630 0 630 -180 0 -180 0 0 -90z"/>
<path d="M12780 7470 l0 -90 -180 0 -180 0 0 -180 0 -180 -90 0 -90 0 0 -360
0 -360 150 0 150 0 0 -30 0 -30 150 0 150 0 0 -330 0 -330 90 0 90 0 0 -180 0
-180 180 0 180 0 0 -30 0 -30 450 0 450 0 0 30 0 30 180 0 180 0 0 180 0 180
90 0 90 0 0 330 0 330 30 0 c27 0 30 3 30 30 l0 30 -180 0 -180 0 0 -30 c0
-27 -3 -30 -30 -30 l-30 0 0 -330 0 -330 -90 0 -90 0 0 -90 0 -90 -450 0 -450
0 0 180 0 180 90 0 90 0 0 90 0 90 90 0 90 0 0 90 0 90 90 0 90 0 0 60 0 60
120 0 120 0 0 30 c0 27 3 30 30 30 l30 0 0 360 0 360 -90 0 -90 0 0 180 0 180
-180 0 -180 0 0 90 0 90 -450 0 -450 0 0 -90z m900 -450 l0 -180 -90 0 -90 0
0 -90 0 -90 -90 0 -90 0 0 -90 0 -90 -90 0 -90 0 0 -90 0 -90 180 0 180 0 0
90 0 90 90 0 90 0 0 90 0 90 90 0 90 0 0 -180 0 -180 -30 0 c-27 0 -30 -3 -30
-30 l0 -30 -120 0 -120 0 0 -60 0 -60 -90 0 -90 0 0 -90 0 -90 -90 0 -90 0 0
150 0 150 -150 0 -150 0 0 30 0 30 -150 0 -150 0 0 360 0 360 90 0 90 0 0 90
0 90 450 0 450 0 0 -180z"/>
<path d="M6360 6270 c0 -27 3 -30 30 -30 27 0 30 3 30 30 0 27 -3 30 -30 30
-27 0 -30 -3 -30 -30z"/>
<path d="M15420 6270 l0 -30 180 0 180 0 0 30 0 30 -180 0 -180 0 0 -30z"/>
<path d="M3540 5820 l0 -420 -270 0 -270 0 0 -150 0 -150 480 0 480 0 0 -30 0
-30 720 0 720 0 0 30 0 30 360 0 360 0 0 -30 0 -30 720 0 720 0 0 30 0 30 420
0 420 0 0 30 0 30 -120 0 -120 0 0 120 0 120 -270 0 -270 0 0 420 0 420 -180
0 -180 0 0 -420 0 -420 -270 0 -270 0 0 -120 0 -120 390 0 390 0 0 -30 0 -30
-450 0 -450 0 0 30 0 30 -720 0 -720 0 0 -30 0 -30 -360 0 -360 0 0 150 0 150
-270 0 -270 0 0 420 0 420 -180 0 -180 0 0 -420z"/>
<path d="M8460 5070 l0 -30 450 0 450 0 0 30 0 30 -450 0 -450 0 0 -30z"/>
<path d="M12780 5070 l0 -30 450 0 450 0 0 30 0 30 -450 0 -450 0 0 -30z"/>
<path d="M8460 4590 l0 -90 -180 0 -180 0 0 -180 0 -180 -90 0 -90 0 0 -720 0
-720 90 0 90 0 0 -180 0 -180 180 0 180 0 0 -90 0 -90 450 0 450 0 0 90 0 90
180 0 180 0 0 180 0 180 90 0 90 0 0 720 0 720 -90 0 -90 0 0 180 0 180 -180
0 -180 0 0 90 0 90 -450 0 -450 0 0 -90z m900 -450 l0 -180 -90 0 -90 0 0 -90
0 -90 -90 0 -90 0 0 -90 0 -90 -90 0 -90 0 0 -90 0 -90 -90 0 -90 0 0 -90 0
-90 -90 0 -90 0 0 -90 0 -90 -90 0 -90 0 0 540 0 540 90 0 90 0 0 90 0 90 450
0 450 0 0 -180z m180 -900 l0 -540 -90 0 -90 0 0 -90 0 -90 -450 0 -450 0 0
180 0 180 90 0 90 0 0 90 0 90 90 0 90 0 0 90 0 90 90 0 90 0 0 90 0 90 90 0
90 0 0 90 0 90 90 0 90 0 0 90 0 90 90 0 90 0 0 -540z"/>
</g>
</svg>
